<!-- GENERATED BY:

 elses -i 3 -l 10 -a 90 &#45;&#45;width 300 &#45;&#45;height 200 -x 200 -y -40 &#45;&#45;rotation 90 samples/koch.txt samples/koch.svg

 -->

<svg xmlns="http://www.w3.org/2000/svg"   width="300.0mm"
   height="200.0mm"
   viewBox="0 0 300.0 200.0"
   version="1.1">
<g id="elses-001" transform="rotate(90.0, 150.0, 100.0)" >
<line x1="200.000000" y1="-40.000000" x2="200.000000" y2="-30.000000" stroke="black" />
<line x1="200.000000" y1="-30.000000" x2="190.000000" y2="-30.000000" stroke="black" />
<line x1="190.000000" y1="-30.000000" x2="190.000000" y2="-20.000000" stroke="black" />
<line x1="190.000000" y1="-20.000000" x2="200.000000" y2="-20.000000" stroke="black" />
<line x1="200.000000" y1="-20.000000" x2="200.000000" y2="-10.000000" stroke="black" />
<line x1="200.000000" y1="-10.000000" x2="190.000000" y2="-10.000000" stroke="black" />
<line x1="190.000000" y1="-10.000000" x2="190.000000" y2="-20.000000" stroke="black" />
<line x1="190.000000" y1="-20.000000" x2="180.000000" y2="-20.000000" stroke="black" />
<line x1="180.000000" y1="-20.000000" x2="180.000000" y2="-10.000000" stroke="black" />
<line x1="180.000000" y1="-10.000000" x2="170.000000" y2="-10.000000" stroke="black" />
<line x1="170.000000" y1="-10.000000" x2="170.000000" y2="0.000000" stroke="black" />
<line x1="170.000000" y1="0.000000" x2="160.000000" y2="0.000000" stroke="black" />
<line x1="160.000000" y1="0.000000" x2="160.000000" y2="10.000000" stroke="black" />
<line x1="160.000000" y1="10.000000" x2="170.000000" y2="10.000000" stroke="black" />
<line x1="170.000000" y1="10.000000" x2="170.000000" y2="20.000000" stroke="black" />
<line x1="170.000000" y1="20.000000" x2="180.000000" y2="20.000000" stroke="black" />
<line x1="180.000000" y1="20.000000" x2="180.000000" y2="30.000000" stroke="black" />
<line x1="180.000000" y1="30.000000" x2="190.000000" y2="30.000000" stroke="black" />
<line x1="190.000000" y1="30.000000" x2="190.000000" y2="20.000000" stroke="black" />
<line x1="190.000000" y1="20.000000" x2="200.000000" y2="20.000000" stroke="black" />
<line x1="200.000000" y1="20.000000" x2="200.000000" y2="30.000000" stroke="black" />
<line x1="200.000000" y1="30.000000" x2="190.000000" y2="30.000000" stroke="black" />
<line x1="190.000000" y1="30.000000" x2="190.000000" y2="40.000000" stroke="black" />
<line x1="190.000000" y1="40.000000" x2="200.000000" y2="40.000000" stroke="black" />
<line x1="200.000000" y1="40.000000" x2="200.000000" y2="50.000000" stroke="black" />
<line x1="200.000000" y1="50.000000" x2="190.000000" y2="50.000000" stroke="black" />
<line x1="190.000000" y1="50.000000" x2="190.000000" y2="40.000000" stroke="black" />
<line x1="190.000000" y1="40.000000" x2="180.000000" y2="40.000000" stroke="black" />
<line x1="180.000000" y1="40.000000" x2="180.000000" y2="50.000000" stroke="black" />
<line x1="180.000000" y1="50.000000" x2="170.000000" y2="50.000000" stroke="black" />
<line x1="170.000000" y1="50.000000" x2="170.000000" y2="40.000000" stroke="black" />
<line x1="170.000000" y1="40.000000" x2="180.000000" y2="40.000000" stroke="black" />
<line x1="180.000000" y1="40.000000" x2="180.000000" y2="30.000000" stroke="black" />
<line x1="180.000000" y1="30.000000" x2="170.000000" y2="30.000000" stroke="black" />
<line x1="170.000000" y1="30.000000" x2="170.000000" y2="20.000000" stroke="black" />
<line x1="170.000000" y1="20.000000" x2="160.000000" y2="20.000000" stroke="black" />
<line x1="160.000000" y1="20.000000" x2="160.000000" y2="10.000000" stroke="black" />
<line x1="160.000000" y1="10.000000" x2="150.000000" y2="10.000000" stroke="black" />
<line x1="150.000000" y1="10.000000" x2="150.000000" y2="20.000000" stroke="black" />
<line x1="150.000000" y1="20.000000" x2="140.000000" y2="20.000000" stroke="black" />
<line x1="140.000000" y1="20.000000" x2="140.000000" y2="30.000000" stroke="black" />
<line x1="140.000000" y1="30.000000" x2="130.000000" y2="30.000000" stroke="black" />
<line x1="130.000000" y1="30.000000" x2="130.000000" y2="40.000000" stroke="black" />
<line x1="130.000000" y1="40.000000" x2="140.000000" y2="40.000000" stroke="black" />
<line x1="140.000000" y1="40.000000" x2="140.000000" y2="50.000000" stroke="black" />
<line x1="140.000000" y1="50.000000" x2="130.000000" y2="50.000000" stroke="black" />
<line x1="130.000000" y1="50.000000" x2="130.000000" y2="40.000000" stroke="black" />
<line x1="130.000000" y1="40.000000" x2="120.000000" y2="40.000000" stroke="black" />
<line x1="120.000000" y1="40.000000" x2="120.000000" y2="50.000000" stroke="black" />
<line x1="120.000000" y1="50.000000" x2="110.000000" y2="50.000000" stroke="black" />
<line x1="110.000000" y1="50.000000" x2="110.000000" y2="60.000000" stroke="black" />
<line x1="110.000000" y1="60.000000" x2="100.000000" y2="60.000000" stroke="black" />
<line x1="100.000000" y1="60.000000" x2="100.000000" y2="70.000000" stroke="black" />
<line x1="100.000000" y1="70.000000" x2="110.000000" y2="70.000000" stroke="black" />
<line x1="110.000000" y1="70.000000" x2="110.000000" y2="80.000000" stroke="black" />
<line x1="110.000000" y1="80.000000" x2="100.000000" y2="80.000000" stroke="black" />
<line x1="100.000000" y1="80.000000" x2="100.000000" y2="70.000000" stroke="black" />
<line x1="100.000000" y1="70.000000" x2="90.000000" y2="70.000000" stroke="black" />
<line x1="90.000000" y1="70.000000" x2="90.000000" y2="80.000000" stroke="black" />
<line x1="90.000000" y1="80.000000" x2="80.000000" y2="80.000000" stroke="black" />
<line x1="80.000000" y1="80.000000" x2="80.000000" y2="90.000000" stroke="black" />
<line x1="80.000000" y1="90.000000" x2="70.000000" y2="90.000000" stroke="black" />
<line x1="70.000000" y1="90.000000" x2="70.000000" y2="100.000000" stroke="black" />
<line x1="70.000000" y1="100.000000" x2="80.000000" y2="100.000000" stroke="black" />
<line x1="80.000000" y1="100.000000" x2="80.000000" y2="110.000000" stroke="black" />
<line x1="80.000000" y1="110.000000" x2="90.000000" y2="110.000000" stroke="black" />
<line x1="90.000000" y1="110.000000" x2="90.000000" y2="120.000000" stroke="black" />
<line x1="90.000000" y1="120.000000" x2="100.000000" y2="120.000000" stroke="black" />
<line x1="100.000000" y1="120.000000" x2="100.000000" y2="110.000000" stroke="black" />
<line x1="100.000000" y1="110.000000" x2="110.000000" y2="110.000000" stroke="black" />
<line x1="110.000000" y1="110.000000" x2="110.000000" y2="120.000000" stroke="black" />
<line x1="110.000000" y1="120.000000" x2="100.000000" y2="120.000000" stroke="black" />
<line x1="100.000000" y1="120.000000" x2="100.000000" y2="130.000000" stroke="black" />
<line x1="100.000000" y1="130.000000" x2="110.000000" y2="130.000000" stroke="black" />
<line x1="110.000000" y1="130.000000" x2="110.000000" y2="140.000000" stroke="black" />
<line x1="110.000000" y1="140.000000" x2="120.000000" y2="140.000000" stroke="black" />
<line x1="120.000000" y1="140.000000" x2="120.000000" y2="150.000000" stroke="black" />
<line x1="120.000000" y1="150.000000" x2="130.000000" y2="150.000000" stroke="black" />
<line x1="130.000000" y1="150.000000" x2="130.000000" y2="140.000000" stroke="black" />
<line x1="130.000000" y1="140.000000" x2="140.000000" y2="140.000000" stroke="black" />
<line x1="140.000000" y1="140.000000" x2="140.000000" y2="150.000000" stroke="black" />
<line x1="140.000000" y1="150.000000" x2="130.000000" y2="150.000000" stroke="black" />
<line x1="130.000000" y1="150.000000" x2="130.000000" y2="160.000000" stroke="black" />
<line x1="130.000000" y1="160.000000" x2="140.000000" y2="160.000000" stroke="black" />
<line x1="140.000000" y1="160.000000" x2="140.000000" y2="170.000000" stroke="black" />
<line x1="140.000000" y1="170.000000" x2="150.000000" y2="170.000000" stroke="black" />
<line x1="150.000000" y1="170.000000" x2="150.000000" y2="180.000000" stroke="black" />
<line x1="150.000000" y1="180.000000" x2="160.000000" y2="180.000000" stroke="black" />
<line x1="160.000000" y1="180.000000" x2="160.000000" y2="170.000000" stroke="black" />
<line x1="160.000000" y1="170.000000" x2="170.000000" y2="170.000000" stroke="black" />
<line x1="170.000000" y1="170.000000" x2="170.000000" y2="160.000000" stroke="black" />
<line x1="170.000000" y1="160.000000" x2="180.000000" y2="160.000000" stroke="black" />
<line x1="180.000000" y1="160.000000" x2="180.000000" y2="150.000000" stroke="black" />
<line x1="180.000000" y1="150.000000" x2="170.000000" y2="150.000000" stroke="black" />
<line x1="170.000000" y1="150.000000" x2="170.000000" y2="140.000000" stroke="black" />
<line x1="170.000000" y1="140.000000" x2="180.000000" y2="140.000000" stroke="black" />
<line x1="180.000000" y1="140.000000" x2="180.000000" y2="150.000000" stroke="black" />
<line x1="180.000000" y1="150.000000" x2="190.000000" y2="150.000000" stroke="black" />
<line x1="190.000000" y1="150.000000" x2="190.000000" y2="140.000000" stroke="black" />
<line x1="190.000000" y1="140.000000" x2="200.000000" y2="140.000000" stroke="black" />
<line x1="200.000000" y1="140.000000" x2="200.000000" y2="150.000000" stroke="black" />
<line x1="200.000000" y1="150.000000" x2="190.000000" y2="150.000000" stroke="black" />
<line x1="190.000000" y1="150.000000" x2="190.000000" y2="160.000000" stroke="black" />
<line x1="190.000000" y1="160.000000" x2="200.000000" y2="160.000000" stroke="black" />
<line x1="200.000000" y1="160.000000" x2="200.000000" y2="170.000000" stroke="black" />
<line x1="200.000000" y1="170.000000" x2="190.000000" y2="170.000000" stroke="black" />
<line x1="190.000000" y1="170.000000" x2="190.000000" y2="160.000000" stroke="black" />
<line x1="190.000000" y1="160.000000" x2="180.000000" y2="160.000000" stroke="black" />
<line x1="180.000000" y1="160.000000" x2="180.000000" y2="170.000000" stroke="black" />
<line x1="180.000000" y1="170.000000" x2="170.000000" y2="170.000000" stroke="black" />
<line x1="170.000000" y1="170.000000" x2="170.000000" y2="180.000000" stroke="black" />
<line x1="170.000000" y1="180.000000" x2="160.000000" y2="180.000000" stroke="black" />
<line x1="160.000000" y1="180.000000" x2="160.000000" y2="190.000000" stroke="black" />
<line x1="160.000000" y1="190.000000" x2="170.000000" y2="190.000000" stroke="black" />
<line x1="170.000000" y1="190.000000" x2="170.000000" y2="200.000000" stroke="black" />
<line x1="170.000000" y1="200.000000" x2="180.000000" y2="200.000000" stroke="black" />
<line x1="180.000000" y1="200.000000" x2="180.000000" y2="210.000000" stroke="black" />
<line x1="180.000000" y1="210.000000" x2="190.000000" y2="210.000000" stroke="black" />
<line x1="190.000000" y1="210.000000" x2="190.000000" y2="200.000000" stroke="black" />
<line x1="190.000000" y1="200.000000" x2="200.000000" y2="200.000000" stroke="black" />
<line x1="200.000000" y1="200.000000" x2="200.000000" y2="210.000000" stroke="black" />
<line x1="200.000000" y1="210.000000" x2="190.000000" y2="210.000000" stroke="black" />
<line x1="190.000000" y1="210.000000" x2="190.000000" y2="220.000000" stroke="black" />
<line x1="190.000000" y1="220.000000" x2="200.000000" y2="220.000000" stroke="black" />
<line x1="200.000000" y1="220.000000" x2="200.000000" y2="230.000000" stroke="black" />
</g>
</svg>
