<!-- GENERATED BY:

 elses -i 4 -a 120 &#45;&#45;width 200 &#45;&#45;height 200 -x 70 -y 50 &#45;&#45;rotation -150 samples/sierpinski.txt samples/sierpinski.svg

 -->

<svg xmlns="http://www.w3.org/2000/svg"   width="200.0mm"
   height="200.0mm"
   viewBox="0 0 200.0 200.0"
   version="1.1">
<g id="elses-001" transform="rotate(-150.0, 100.0, 100.0)" >
<line x1="70.000000" y1="50.000000" x2="70.000000" y2="60.000000" stroke="black" />
<line x1="78.660254" y1="55.000000" x2="78.660254" y2="65.000000" stroke="black" />
<line x1="70.000000" y1="60.000000" x2="70.000000" y2="70.000000" stroke="black" />
<line x1="87.320508" y1="60.000000" x2="87.320508" y2="70.000000" stroke="black" />
<line x1="95.980762" y1="65.000000" x2="95.980762" y2="75.000000" stroke="black" />
<line x1="87.320508" y1="70.000000" x2="87.320508" y2="80.000000" stroke="black" />
<line x1="70.000000" y1="70.000000" x2="70.000000" y2="80.000000" stroke="black" />
<line x1="78.660254" y1="75.000000" x2="78.660254" y2="85.000000" stroke="black" />
<line x1="70.000000" y1="80.000000" x2="70.000000" y2="90.000000" stroke="black" />
<line x1="104.641016" y1="70.000000" x2="104.641016" y2="80.000000" stroke="black" />
<line x1="113.301270" y1="75.000000" x2="113.301270" y2="85.000000" stroke="black" />
<line x1="104.641016" y1="80.000000" x2="104.641016" y2="90.000000" stroke="black" />
<line x1="121.961524" y1="80.000000" x2="121.961524" y2="90.000000" stroke="black" />
<line x1="130.621778" y1="85.000000" x2="130.621778" y2="95.000000" stroke="black" />
<line x1="121.961524" y1="90.000000" x2="121.961524" y2="100.000000" stroke="black" />
<line x1="104.641016" y1="90.000000" x2="104.641016" y2="100.000000" stroke="black" />
<line x1="113.301270" y1="95.000000" x2="113.301270" y2="105.000000" stroke="black" />
<line x1="104.641016" y1="100.000000" x2="104.641016" y2="110.000000" stroke="black" />
<line x1="70.000000" y1="90.000000" x2="70.000000" y2="100.000000" stroke="black" />
<line x1="78.660254" y1="95.000000" x2="78.660254" y2="105.000000" stroke="black" />
<line x1="70.000000" y1="100.000000" x2="70.000000" y2="110.000000" stroke="black" />
<line x1="87.320508" y1="100.000000" x2="87.320508" y2="110.000000" stroke="black" />
<line x1="95.980762" y1="105.000000" x2="95.980762" y2="115.000000" stroke="black" />
<line x1="87.320508" y1="110.000000" x2="87.320508" y2="120.000000" stroke="black" />
<line x1="70.000000" y1="110.000000" x2="70.000000" y2="120.000000" stroke="black" />
<line x1="78.660254" y1="115.000000" x2="78.660254" y2="125.000000" stroke="black" />
<line x1="70.000000" y1="120.000000" x2="70.000000" y2="130.000000" stroke="black" />
<line x1="139.282032" y1="90.000000" x2="139.282032" y2="100.000000" stroke="black" />
<line x1="147.942286" y1="95.000000" x2="147.942286" y2="105.000000" stroke="black" />
<line x1="139.282032" y1="100.000000" x2="139.282032" y2="110.000000" stroke="black" />
<line x1="156.602540" y1="100.000000" x2="156.602540" y2="110.000000" stroke="black" />
<line x1="165.262794" y1="105.000000" x2="165.262794" y2="115.000000" stroke="black" />
<line x1="156.602540" y1="110.000000" x2="156.602540" y2="120.000000" stroke="black" />
<line x1="139.282032" y1="110.000000" x2="139.282032" y2="120.000000" stroke="black" />
<line x1="147.942286" y1="115.000000" x2="147.942286" y2="125.000000" stroke="black" />
<line x1="139.282032" y1="120.000000" x2="139.282032" y2="130.000000" stroke="black" />
<line x1="173.923048" y1="110.000000" x2="173.923048" y2="120.000000" stroke="black" />
<line x1="182.583302" y1="115.000000" x2="182.583302" y2="125.000000" stroke="black" />
<line x1="173.923048" y1="120.000000" x2="173.923048" y2="130.000000" stroke="black" />
<line x1="191.243557" y1="120.000000" x2="191.243557" y2="130.000000" stroke="black" />
<line x1="199.903811" y1="125.000000" x2="199.903811" y2="135.000000" stroke="black" />
<line x1="191.243557" y1="130.000000" x2="191.243557" y2="140.000000" stroke="black" />
<line x1="173.923048" y1="130.000000" x2="173.923048" y2="140.000000" stroke="black" />
<line x1="182.583302" y1="135.000000" x2="182.583302" y2="145.000000" stroke="black" />
<line x1="173.923048" y1="140.000000" x2="173.923048" y2="150.000000" stroke="black" />
<line x1="139.282032" y1="130.000000" x2="139.282032" y2="140.000000" stroke="black" />
<line x1="147.942286" y1="135.000000" x2="147.942286" y2="145.000000" stroke="black" />
<line x1="139.282032" y1="140.000000" x2="139.282032" y2="150.000000" stroke="black" />
<line x1="156.602540" y1="140.000000" x2="156.602540" y2="150.000000" stroke="black" />
<line x1="165.262794" y1="145.000000" x2="165.262794" y2="155.000000" stroke="black" />
<line x1="156.602540" y1="150.000000" x2="156.602540" y2="160.000000" stroke="black" />
<line x1="139.282032" y1="150.000000" x2="139.282032" y2="160.000000" stroke="black" />
<line x1="147.942286" y1="155.000000" x2="147.942286" y2="165.000000" stroke="black" />
<line x1="139.282032" y1="160.000000" x2="139.282032" y2="170.000000" stroke="black" />
<line x1="70.000000" y1="130.000000" x2="70.000000" y2="140.000000" stroke="black" />
<line x1="78.660254" y1="135.000000" x2="78.660254" y2="145.000000" stroke="black" />
<line x1="70.000000" y1="140.000000" x2="70.000000" y2="150.000000" stroke="black" />
<line x1="87.320508" y1="140.000000" x2="87.320508" y2="150.000000" stroke="black" />
<line x1="95.980762" y1="145.000000" x2="95.980762" y2="155.000000" stroke="black" />
<line x1="87.320508" y1="150.000000" x2="87.320508" y2="160.000000" stroke="black" />
<line x1="70.000000" y1="150.000000" x2="70.000000" y2="160.000000" stroke="black" />
<line x1="78.660254" y1="155.000000" x2="78.660254" y2="165.000000" stroke="black" />
<line x1="70.000000" y1="160.000000" x2="70.000000" y2="170.000000" stroke="black" />
<line x1="104.641016" y1="150.000000" x2="104.641016" y2="160.000000" stroke="black" />
<line x1="113.301270" y1="155.000000" x2="113.301270" y2="165.000000" stroke="black" />
<line x1="104.641016" y1="160.000000" x2="104.641016" y2="170.000000" stroke="black" />
<line x1="121.961524" y1="160.000000" x2="121.961524" y2="170.000000" stroke="black" />
<line x1="130.621778" y1="165.000000" x2="130.621778" y2="175.000000" stroke="black" />
<line x1="121.961524" y1="170.000000" x2="121.961524" y2="180.000000" stroke="black" />
<line x1="104.641016" y1="170.000000" x2="104.641016" y2="180.000000" stroke="black" />
<line x1="113.301270" y1="175.000000" x2="113.301270" y2="185.000000" stroke="black" />
<line x1="104.641016" y1="180.000000" x2="104.641016" y2="190.000000" stroke="black" />
<line x1="70.000000" y1="170.000000" x2="70.000000" y2="180.000000" stroke="black" />
<line x1="78.660254" y1="175.000000" x2="78.660254" y2="185.000000" stroke="black" />
<line x1="70.000000" y1="180.000000" x2="70.000000" y2="190.000000" stroke="black" />
<line x1="87.320508" y1="180.000000" x2="87.320508" y2="190.000000" stroke="black" />
<line x1="95.980762" y1="185.000000" x2="95.980762" y2="195.000000" stroke="black" />
<line x1="87.320508" y1="190.000000" x2="87.320508" y2="200.000000" stroke="black" />
<line x1="70.000000" y1="190.000000" x2="70.000000" y2="200.000000" stroke="black" />
<line x1="78.660254" y1="195.000000" x2="78.660254" y2="205.000000" stroke="black" />
<line x1="70.000000" y1="200.000000" x2="70.000000" y2="210.000000" stroke="black" />
<line x1="70.000000" y1="210.000000" x2="78.660254" y2="205.000000" stroke="black" />
<line x1="70.000000" y1="200.000000" x2="78.660254" y2="195.000000" stroke="black" />
<line x1="78.660254" y1="205.000000" x2="87.320508" y2="200.000000" stroke="black" />
<line x1="70.000000" y1="190.000000" x2="78.660254" y2="185.000000" stroke="black" />
<line x1="70.000000" y1="180.000000" x2="78.660254" y2="175.000000" stroke="black" />
<line x1="78.660254" y1="185.000000" x2="87.320508" y2="180.000000" stroke="black" />
<line x1="87.320508" y1="200.000000" x2="95.980762" y2="195.000000" stroke="black" />
<line x1="87.320508" y1="190.000000" x2="95.980762" y2="185.000000" stroke="black" />
<line x1="95.980762" y1="195.000000" x2="104.641016" y2="190.000000" stroke="black" />
<line x1="70.000000" y1="170.000000" x2="78.660254" y2="165.000000" stroke="black" />
<line x1="70.000000" y1="160.000000" x2="78.660254" y2="155.000000" stroke="black" />
<line x1="78.660254" y1="165.000000" x2="87.320508" y2="160.000000" stroke="black" />
<line x1="70.000000" y1="150.000000" x2="78.660254" y2="145.000000" stroke="black" />
<line x1="70.000000" y1="140.000000" x2="78.660254" y2="135.000000" stroke="black" />
<line x1="78.660254" y1="145.000000" x2="87.320508" y2="140.000000" stroke="black" />
<line x1="87.320508" y1="160.000000" x2="95.980762" y2="155.000000" stroke="black" />
<line x1="87.320508" y1="150.000000" x2="95.980762" y2="145.000000" stroke="black" />
<line x1="95.980762" y1="155.000000" x2="104.641016" y2="150.000000" stroke="black" />
<line x1="104.641016" y1="190.000000" x2="113.301270" y2="185.000000" stroke="black" />
<line x1="104.641016" y1="180.000000" x2="113.301270" y2="175.000000" stroke="black" />
<line x1="113.301270" y1="185.000000" x2="121.961524" y2="180.000000" stroke="black" />
<line x1="104.641016" y1="170.000000" x2="113.301270" y2="165.000000" stroke="black" />
<line x1="104.641016" y1="160.000000" x2="113.301270" y2="155.000000" stroke="black" />
<line x1="113.301270" y1="165.000000" x2="121.961524" y2="160.000000" stroke="black" />
<line x1="121.961524" y1="180.000000" x2="130.621778" y2="175.000000" stroke="black" />
<line x1="121.961524" y1="170.000000" x2="130.621778" y2="165.000000" stroke="black" />
<line x1="130.621778" y1="175.000000" x2="139.282032" y2="170.000000" stroke="black" />
<line x1="70.000000" y1="130.000000" x2="78.660254" y2="125.000000" stroke="black" />
<line x1="70.000000" y1="120.000000" x2="78.660254" y2="115.000000" stroke="black" />
<line x1="78.660254" y1="125.000000" x2="87.320508" y2="120.000000" stroke="black" />
<line x1="70.000000" y1="110.000000" x2="78.660254" y2="105.000000" stroke="black" />
<line x1="70.000000" y1="100.000000" x2="78.660254" y2="95.000000" stroke="black" />
<line x1="78.660254" y1="105.000000" x2="87.320508" y2="100.000000" stroke="black" />
<line x1="87.320508" y1="120.000000" x2="95.980762" y2="115.000000" stroke="black" />
<line x1="87.320508" y1="110.000000" x2="95.980762" y2="105.000000" stroke="black" />
<line x1="95.980762" y1="115.000000" x2="104.641016" y2="110.000000" stroke="black" />
<line x1="70.000000" y1="90.000000" x2="78.660254" y2="85.000000" stroke="black" />
<line x1="70.000000" y1="80.000000" x2="78.660254" y2="75.000000" stroke="black" />
<line x1="78.660254" y1="85.000000" x2="87.320508" y2="80.000000" stroke="black" />
<line x1="70.000000" y1="70.000000" x2="78.660254" y2="65.000000" stroke="black" />
<line x1="70.000000" y1="60.000000" x2="78.660254" y2="55.000000" stroke="black" />
<line x1="78.660254" y1="65.000000" x2="87.320508" y2="60.000000" stroke="black" />
<line x1="87.320508" y1="80.000000" x2="95.980762" y2="75.000000" stroke="black" />
<line x1="87.320508" y1="70.000000" x2="95.980762" y2="65.000000" stroke="black" />
<line x1="95.980762" y1="75.000000" x2="104.641016" y2="70.000000" stroke="black" />
<line x1="104.641016" y1="110.000000" x2="113.301270" y2="105.000000" stroke="black" />
<line x1="104.641016" y1="100.000000" x2="113.301270" y2="95.000000" stroke="black" />
<line x1="113.301270" y1="105.000000" x2="121.961524" y2="100.000000" stroke="black" />
<line x1="104.641016" y1="90.000000" x2="113.301270" y2="85.000000" stroke="black" />
<line x1="104.641016" y1="80.000000" x2="113.301270" y2="75.000000" stroke="black" />
<line x1="113.301270" y1="85.000000" x2="121.961524" y2="80.000000" stroke="black" />
<line x1="121.961524" y1="100.000000" x2="130.621778" y2="95.000000" stroke="black" />
<line x1="121.961524" y1="90.000000" x2="130.621778" y2="85.000000" stroke="black" />
<line x1="130.621778" y1="95.000000" x2="139.282032" y2="90.000000" stroke="black" />
<line x1="139.282032" y1="170.000000" x2="147.942286" y2="165.000000" stroke="black" />
<line x1="139.282032" y1="160.000000" x2="147.942286" y2="155.000000" stroke="black" />
<line x1="147.942286" y1="165.000000" x2="156.602540" y2="160.000000" stroke="black" />
<line x1="139.282032" y1="150.000000" x2="147.942286" y2="145.000000" stroke="black" />
<line x1="139.282032" y1="140.000000" x2="147.942286" y2="135.000000" stroke="black" />
<line x1="147.942286" y1="145.000000" x2="156.602540" y2="140.000000" stroke="black" />
<line x1="156.602540" y1="160.000000" x2="165.262794" y2="155.000000" stroke="black" />
<line x1="156.602540" y1="150.000000" x2="165.262794" y2="145.000000" stroke="black" />
<line x1="165.262794" y1="155.000000" x2="173.923048" y2="150.000000" stroke="black" />
<line x1="139.282032" y1="130.000000" x2="147.942286" y2="125.000000" stroke="black" />
<line x1="139.282032" y1="120.000000" x2="147.942286" y2="115.000000" stroke="black" />
<line x1="147.942286" y1="125.000000" x2="156.602540" y2="120.000000" stroke="black" />
<line x1="139.282032" y1="110.000000" x2="147.942286" y2="105.000000" stroke="black" />
<line x1="139.282032" y1="100.000000" x2="147.942286" y2="95.000000" stroke="black" />
<line x1="147.942286" y1="105.000000" x2="156.602540" y2="100.000000" stroke="black" />
<line x1="156.602540" y1="120.000000" x2="165.262794" y2="115.000000" stroke="black" />
<line x1="156.602540" y1="110.000000" x2="165.262794" y2="105.000000" stroke="black" />
<line x1="165.262794" y1="115.000000" x2="173.923048" y2="110.000000" stroke="black" />
<line x1="173.923048" y1="150.000000" x2="182.583302" y2="145.000000" stroke="black" />
<line x1="173.923048" y1="140.000000" x2="182.583302" y2="135.000000" stroke="black" />
<line x1="182.583302" y1="145.000000" x2="191.243557" y2="140.000000" stroke="black" />
<line x1="173.923048" y1="130.000000" x2="182.583302" y2="125.000000" stroke="black" />
<line x1="173.923048" y1="120.000000" x2="182.583302" y2="115.000000" stroke="black" />
<line x1="182.583302" y1="125.000000" x2="191.243557" y2="120.000000" stroke="black" />
<line x1="191.243557" y1="140.000000" x2="199.903811" y2="135.000000" stroke="black" />
<line x1="191.243557" y1="130.000000" x2="199.903811" y2="125.000000" stroke="black" />
<line x1="199.903811" y1="135.000000" x2="208.564065" y2="130.000000" stroke="black" />
<line x1="208.564065" y1="130.000000" x2="199.903811" y2="125.000000" stroke="black" />
<line x1="199.903811" y1="135.000000" x2="191.243557" y2="130.000000" stroke="black" />
<line x1="199.903811" y1="125.000000" x2="191.243557" y2="120.000000" stroke="black" />
<line x1="191.243557" y1="140.000000" x2="182.583302" y2="135.000000" stroke="black" />
<line x1="182.583302" y1="145.000000" x2="173.923048" y2="140.000000" stroke="black" />
<line x1="182.583302" y1="135.000000" x2="173.923048" y2="130.000000" stroke="black" />
<line x1="191.243557" y1="120.000000" x2="182.583302" y2="115.000000" stroke="black" />
<line x1="182.583302" y1="125.000000" x2="173.923048" y2="120.000000" stroke="black" />
<line x1="182.583302" y1="115.000000" x2="173.923048" y2="110.000000" stroke="black" />
<line x1="173.923048" y1="150.000000" x2="165.262794" y2="145.000000" stroke="black" />
<line x1="165.262794" y1="155.000000" x2="156.602540" y2="150.000000" stroke="black" />
<line x1="165.262794" y1="145.000000" x2="156.602540" y2="140.000000" stroke="black" />
<line x1="156.602540" y1="160.000000" x2="147.942286" y2="155.000000" stroke="black" />
<line x1="147.942286" y1="165.000000" x2="139.282032" y2="160.000000" stroke="black" />
<line x1="147.942286" y1="155.000000" x2="139.282032" y2="150.000000" stroke="black" />
<line x1="156.602540" y1="140.000000" x2="147.942286" y2="135.000000" stroke="black" />
<line x1="147.942286" y1="145.000000" x2="139.282032" y2="140.000000" stroke="black" />
<line x1="147.942286" y1="135.000000" x2="139.282032" y2="130.000000" stroke="black" />
<line x1="173.923048" y1="110.000000" x2="165.262794" y2="105.000000" stroke="black" />
<line x1="165.262794" y1="115.000000" x2="156.602540" y2="110.000000" stroke="black" />
<line x1="165.262794" y1="105.000000" x2="156.602540" y2="100.000000" stroke="black" />
<line x1="156.602540" y1="120.000000" x2="147.942286" y2="115.000000" stroke="black" />
<line x1="147.942286" y1="125.000000" x2="139.282032" y2="120.000000" stroke="black" />
<line x1="147.942286" y1="115.000000" x2="139.282032" y2="110.000000" stroke="black" />
<line x1="156.602540" y1="100.000000" x2="147.942286" y2="95.000000" stroke="black" />
<line x1="147.942286" y1="105.000000" x2="139.282032" y2="100.000000" stroke="black" />
<line x1="147.942286" y1="95.000000" x2="139.282032" y2="90.000000" stroke="black" />
<line x1="139.282032" y1="170.000000" x2="130.621778" y2="165.000000" stroke="black" />
<line x1="130.621778" y1="175.000000" x2="121.961524" y2="170.000000" stroke="black" />
<line x1="130.621778" y1="165.000000" x2="121.961524" y2="160.000000" stroke="black" />
<line x1="121.961524" y1="180.000000" x2="113.301270" y2="175.000000" stroke="black" />
<line x1="113.301270" y1="185.000000" x2="104.641016" y2="180.000000" stroke="black" />
<line x1="113.301270" y1="175.000000" x2="104.641016" y2="170.000000" stroke="black" />
<line x1="121.961524" y1="160.000000" x2="113.301270" y2="155.000000" stroke="black" />
<line x1="113.301270" y1="165.000000" x2="104.641016" y2="160.000000" stroke="black" />
<line x1="113.301270" y1="155.000000" x2="104.641016" y2="150.000000" stroke="black" />
<line x1="104.641016" y1="190.000000" x2="95.980762" y2="185.000000" stroke="black" />
<line x1="95.980762" y1="195.000000" x2="87.320508" y2="190.000000" stroke="black" />
<line x1="95.980762" y1="185.000000" x2="87.320508" y2="180.000000" stroke="black" />
<line x1="87.320508" y1="200.000000" x2="78.660254" y2="195.000000" stroke="black" />
<line x1="78.660254" y1="205.000000" x2="70.000000" y2="200.000000" stroke="black" />
<line x1="78.660254" y1="195.000000" x2="70.000000" y2="190.000000" stroke="black" />
<line x1="87.320508" y1="180.000000" x2="78.660254" y2="175.000000" stroke="black" />
<line x1="78.660254" y1="185.000000" x2="70.000000" y2="180.000000" stroke="black" />
<line x1="78.660254" y1="175.000000" x2="70.000000" y2="170.000000" stroke="black" />
<line x1="104.641016" y1="150.000000" x2="95.980762" y2="145.000000" stroke="black" />
<line x1="95.980762" y1="155.000000" x2="87.320508" y2="150.000000" stroke="black" />
<line x1="95.980762" y1="145.000000" x2="87.320508" y2="140.000000" stroke="black" />
<line x1="87.320508" y1="160.000000" x2="78.660254" y2="155.000000" stroke="black" />
<line x1="78.660254" y1="165.000000" x2="70.000000" y2="160.000000" stroke="black" />
<line x1="78.660254" y1="155.000000" x2="70.000000" y2="150.000000" stroke="black" />
<line x1="87.320508" y1="140.000000" x2="78.660254" y2="135.000000" stroke="black" />
<line x1="78.660254" y1="145.000000" x2="70.000000" y2="140.000000" stroke="black" />
<line x1="78.660254" y1="135.000000" x2="70.000000" y2="130.000000" stroke="black" />
<line x1="139.282032" y1="90.000000" x2="130.621778" y2="85.000000" stroke="black" />
<line x1="130.621778" y1="95.000000" x2="121.961524" y2="90.000000" stroke="black" />
<line x1="130.621778" y1="85.000000" x2="121.961524" y2="80.000000" stroke="black" />
<line x1="121.961524" y1="100.000000" x2="113.301270" y2="95.000000" stroke="black" />
<line x1="113.301270" y1="105.000000" x2="104.641016" y2="100.000000" stroke="black" />
<line x1="113.301270" y1="95.000000" x2="104.641016" y2="90.000000" stroke="black" />
<line x1="121.961524" y1="80.000000" x2="113.301270" y2="75.000000" stroke="black" />
<line x1="113.301270" y1="85.000000" x2="104.641016" y2="80.000000" stroke="black" />
<line x1="113.301270" y1="75.000000" x2="104.641016" y2="70.000000" stroke="black" />
<line x1="104.641016" y1="110.000000" x2="95.980762" y2="105.000000" stroke="black" />
<line x1="95.980762" y1="115.000000" x2="87.320508" y2="110.000000" stroke="black" />
<line x1="95.980762" y1="105.000000" x2="87.320508" y2="100.000000" stroke="black" />
<line x1="87.320508" y1="120.000000" x2="78.660254" y2="115.000000" stroke="black" />
<line x1="78.660254" y1="125.000000" x2="70.000000" y2="120.000000" stroke="black" />
<line x1="78.660254" y1="115.000000" x2="70.000000" y2="110.000000" stroke="black" />
<line x1="87.320508" y1="100.000000" x2="78.660254" y2="95.000000" stroke="black" />
<line x1="78.660254" y1="105.000000" x2="70.000000" y2="100.000000" stroke="black" />
<line x1="78.660254" y1="95.000000" x2="70.000000" y2="90.000000" stroke="black" />
<line x1="104.641016" y1="70.000000" x2="95.980762" y2="65.000000" stroke="black" />
<line x1="95.980762" y1="75.000000" x2="87.320508" y2="70.000000" stroke="black" />
<line x1="95.980762" y1="65.000000" x2="87.320508" y2="60.000000" stroke="black" />
<line x1="87.320508" y1="80.000000" x2="78.660254" y2="75.000000" stroke="black" />
<line x1="78.660254" y1="85.000000" x2="70.000000" y2="80.000000" stroke="black" />
<line x1="78.660254" y1="75.000000" x2="70.000000" y2="70.000000" stroke="black" />
<line x1="87.320508" y1="60.000000" x2="78.660254" y2="55.000000" stroke="black" />
<line x1="78.660254" y1="65.000000" x2="70.000000" y2="60.000000" stroke="black" />
<line x1="78.660254" y1="55.000000" x2="70.000000" y2="50.000000" stroke="black" />
</g>
</svg>
